#!OML:ASF F:\VICON\USERDATA\INSTALL\rory3\rory3.ASF
:FULLY-SPECIFIED
:DEGREES
261
root 0.968746 17.4391 22.6939 -1.66675 -3.5326 2.67262
lowerback 6.2363 0.197596 -2.32496
upperback -0.1085 0.145607 1.43316
thorax -3.62112 0.127343 2.77618
lowerneck -15.5954 -2.02526 -10.0444
upperneck 23.3843 -1.53258 5.32307
head 10.1573 -0.983518 3.37611
rclavicle 2.13694e-015 -7.95139e-016
rhumerus -30.6751 -14.2352 -77.2552
rradius 30.8723
rwrist 8.78929
rhand -15.6161 16.7381
rfingers 7.12502
rthumb 10.5704 -12.9761
lclavicle 2.13694e-015 -7.95139e-016
lhumerus -37.1907 12.4019 81.4443
lradius 21.1641
lwrist -23.0007
lhand -6.01995 28.3032
lfingers 7.12502
lthumb 19.8132 57.3133
rfemur -16.4662 -1.02183 18.0765
rtibia 70.8115
rfoot -2.06864 -1.98702
rtoes 3.43624
lfemur -11.1387 -0.38104 -26.1229
ltibia 26.5187
lfoot -10.221 1.63329
ltoes 2.96756
262
root 0.975266 17.428 22.8679 -1.57828 -3.34994 2.9645
lowerback 6.15214 0.0415918 -2.58344
upperback -0.060945 -0.0799389 1.41658
thorax -3.5096 0.0173106 2.92501
lowerneck -15.7792 -1.96285 -9.95888
upperneck 23.4658 -1.39139 5.09905
head 10.2084 -0.936834 3.3019
rclavicle -5.10628e-015 -6.36111e-015
rhumerus -30.8685 -14.4063 -77.2125
rradius 30.491
rwrist 8.74545
rhand -15.4891 16.4266
rfingers 7.12502
rthumb 10.693 -13.2813
lclavicle -5.10628e-015 -6.36111e-015
lhumerus -36.4766 12.1663 81.5674
lradius 21.3033
lwrist -22.9702
lhand -6.24709 27.7347
lfingers 7.12502
lthumb 19.5948 56.7672
rfemur -17.9441 -1.64966 17.7598
rtibia 70.8045
rfoot -3.78699 -2.13756
rtoes 2.40593
lfemur -10.7047 -0.505647 -26.5469
ltibia 26.7155
lfoot -10.7846 1.77595
ltoes 3.42259
263
root 0.97877 17.4082 23.0455 -1.57627 -3.24446 3.09519
lowerback 6.07261 -0.0808203 -2.73421
upperback 0.0130454 -0.250104 1.46724
thorax -3.37565 -0.0676356 3.07697
lowerneck -15.5667 -1.90393 -9.84696
upperneck 23.2197 -1.26916 4.75282
head 10.0678 -0.907608 3.16872
rclavicle -3.32964e-015 -1.98785e-014
rhumerus -31.0981 -14.5669 -77.1294
rradius 30.1549
rwrist 8.7092
rhand -15.3863 15.8626
rfingers 7.12502
rthumb 10.7921 -13.8401
lclavicle -3.32964e-015 -1.98785e-014
lhumerus -36.0316 11.7374 81.8082
lradius 21.9581
lwrist -22.5867
lhand -6.55018 27.4214
lfingers 7.12502
lthumb 19.3034 56.4833
rfemur -19.2412 -2.13071 17.6908
rtibia 70.6359
rfoot -5.44303 -2.48909
rtoes 1.71173
lfemur -10.1004 -0.695831 -26.785
ltibia 26.8954
lfoot -11.3851 2.07092
ltoes 3.55544
264
root 0.982191 17.3884 23.2263 -1.60119 -3.22823 3.36164
lowerback 5.98514 -0.186115 -2.98983
upperback 0.0903406 -0.407493 1.41882
thorax -3.23365 -0.145922 3.18334
lowerneck -15.6727 -1.85019 -9.7583
upperneck 23.2614 -1.18062 4.64991
head 10.0946 -0.871031 3.12965
rclavicle -5.04416e-015 -1.35174e-014
rhumerus -31.5292 -14.6886 -77.1398
rradius 30.0809
rwrist 8.64029
rhand -15.2393 15.3807
rfingers 7.12502
rthumb 10.934 -14.3146
lclavicle -5.04416e-015 -1.35174e-014
lhumerus -35.5195 11.0136 82.0271
lradius 22.5576
lwrist -21.7063
lhand -6.95817 27.2573
lfingers 7.12502
lthumb 18.911 56.358
rfemur -20.5489 -2.49529 17.4646
rtibia 70.3385
rfoot -6.98555 -2.75441
rtoes 1.77075
lfemur -9.50516 -0.780861 -27.1763
ltibia 27.1402
lfoot -12.0961 2.36361
ltoes 3.62516
265
root 0.98533 17.365 23.3987 -1.64421 -3.18511 3.70856
lowerback 6.21758 -0.284862 -3.34405
upperback -0.00309882 -0.572926 1.37695
thorax -3.44558 -0.217169 3.35805
lowerneck -15.6926 -1.80783 -9.81519
upperneck 23.3869 -1.11674 4.69178
head 10.1388 -0.844696 3.16529
rclavicle 1.94064e-014 -6.36111e-015
rhumerus -32.2428 -14.9098 -76.9625
rradius 29.9927
rwrist 8.66125
rhand -14.923 15.6113
rfingers 7.12502
rthumb 11.239 -14.0677
lclavicle 1.94064e-014 -6.36111e-015
lhumerus -35.2241 10.2982 82.1746
lradius 23.0252
lwrist -20.889
lhand -7.24611 27.0694
lfingers 7.12502
lthumb 18.6341 56.1968
rfemur -21.9104 -2.87082 17.1953
rtibia 69.9065
rfoot -8.29893 -3.06453
rtoes 1.23744
lfemur -9.01991 -0.828873 -27.6565
ltibia 27.4914
lfoot -12.7316 2.66666
ltoes 3.15071
266
root 0.990023 17.3365 23.5705 -1.66303 -3.09357 3.99745
lowerback 6.41062 -0.368465 -3.61118
upperback -0.0207756 -0.711153 1.35815
thorax -3.55829 -0.278725 3.50496
lowerneck -15.7173 -1.8321 -9.8365
upperneck 23.3707 -1.12875 4.63692
head 10.1392 -0.858172 3.14724
rclavicle 1.55301e-014 3.18055e-015
rhumerus -32.7137 -15.0975 -76.8035
rradius 29.7124
rwrist 8.42868
rhand -14.6462 16.1421
rfingers 7.12502
rthumb 11.506 -13.5221
lclavicle 1.55301e-014 3.18055e-015
lhumerus -34.8448 9.69584 82.3359
lradius 23.6218
lwrist -20.1958
lhand -7.24045 27.2245
lfingers 7.12502
lthumb 18.6395 56.3515
rfemur -23.2032 -3.26269 17.0121
rtibia 69.2761
rfoot -9.41808 -3.41353
rtoes -0.01417
lfemur -8.55478 -0.928612 -28.0671
ltibia 27.8633
lfoot -13.4636 2.91671
ltoes 2.89475
267
root 0.985608 17.3099 23.7346 -1.5586 -2.99944 4.04368
lowerback 6.53092 -0.451524 -3.76539
upperback 0.0249611 -0.835499 1.40605
thorax -3.56488 -0.338083 3.655
lowerneck -15.9907 -1.85422 -9.78525
upperneck 23.39 -1.14073 4.62201
head 10.1988 -0.859042 3.13287
rclavicle -1.09083e-014 1.59028e-015
rhumerus -32.855 -15.078 -76.8356
rradius 29.3563
rwrist 7.96203
rhand -14.4496 16.1313
rfingers 7.12502
rthumb 11.6956 -13.5222
lclavicle -1.09083e-014 1.59028e-015
lhumerus -34.3076 9.05953 82.4943
lradius 24.3476
lwrist -19.4612
lhand -7.25129 27.1315
lfingers 7.12502
lthumb 18.6291 56.2595
rfemur -24.5774 -3.44264 17.1653
rtibia 68.3623
rfoot -10.2205 -3.873
rtoes -0.359339
lfemur -8.22582 -0.920766 -28.1504
ltibia 28.1795
lfoot -14.0726 3.00353
ltoes 2.63423
268
root 0.974328 17.2934 23.902 -1.45748 -2.99144 3.91109
lowerback 6.70264 -0.542126 -3.82737
upperback -0.0204698 -0.963668 1.51247
thorax -3.69429 -0.39591 3.81691
lowerneck -16.1513 -1.85715 -9.63567
upperneck 23.497 -1.13527 4.48492
head 10.2663 -0.860634 3.06168
rclavicle -2.25869e-014 1.51076e-014
rhumerus -33.1273 -15.0239 -76.8573
rradius 28.9544
rwrist 7.83403
rhand -14.3889 15.9243
rfingers 7.12502
rthumb 11.7541 -13.7259
lclavicle -2.25869e-014 1.51076e-014
lhumerus -33.7643 8.41279 82.5791
lradius 24.7193
lwrist -18.7033
lhand -7.77947 26.6632
lfingers 7.12502
lthumb 18.121 55.8391
rfemur -25.8894 -3.40265 17.5634
rtibia 67.1828
rfoot -10.8507 -4.47836
rtoes -0.334157
lfemur -7.82175 -0.949953 -28.0178
ltibia 28.391
lfoot -14.572 3.17195
ltoes 3.01637
269
root 0.977022 17.2815 24.0838 -1.47581 -2.74338 4.1087
lowerback 6.7539 -0.704281 -3.97215
upperback -0.0400731 -1.19473 1.47415
thorax -3.71979 -0.507464 3.88208
lowerneck -15.9956 -1.90327 -9.6535
upperneck 23.3392 -1.22196 4.52605
head 10.1867 -0.895465 3.06421
rclavicle -5.2181e-016 -7.15625e-015
rhumerus -33.6261 -15.0605 -76.7588
rradius 28.719
rwrist 7.91445
rhand -14.2793 15.9788
rfingers 7.12502
rthumb 11.8598 -13.6653
lclavicle -5.2181e-016 -7.15625e-015
lhumerus -33.2584 7.89953 82.5666
lradius 24.9984
lwrist -18.0729
lhand -8.43828 26.3836
lfingers 7.12502
lthumb 17.4871 55.6171
rfemur -26.8347 -3.91496 17.4352
rtibia 65.7889
rfoot -11.5617 -4.86565
rtoes -0.962538
lfemur -7.09878 -1.15527 -28.3446
ltibia 28.5053
lfoot -15.1351 3.37037
ltoes 3.42271
270
root 0.983744 17.2653 24.2644 -1.51338 -2.51686 4.50721
lowerback 6.73924 -0.80848 -4.27048
upperback 0.128154 -1.35723 1.39661
thorax -3.51629 -0.59207 3.98193
lowerneck -16.2646 -1.99176 -9.71872
upperneck 23.1362 -1.30056 4.54064
head 10.1723 -0.928903 3.06639
rclavicle 2.24627e-014 -1.66979e-014
rhumerus -33.8185 -15.1854 -76.6869
rradius 28.5664
rwrist 7.98773
rhand -14.156 16.3751
rfingers 7.12502
rthumb 11.9787 -13.2622
lclavicle 2.24627e-014 -1.66979e-014
lhumerus -32.5209 7.40914 82.6787
lradius 25.5537
lwrist -17.3722
lhand -8.72702 26.6884
lfingers 7.12502
lthumb 17.2092 55.9464
rfemur -27.7136 -4.45954 17.0437
rtibia 64.2161
rfoot -12.3807 -5.08774
rtoes -3.28718
lfemur -6.25562 -1.30547 -28.9054
ltibia 28.413
lfoot -15.638 3.52382
ltoes 3.40647
271
root 0.976689 17.2451 24.4353 -1.49331 -2.57504 4.63271
lowerback 6.78584 -0.835712 -4.53449
upperback 0.344721 -1.41051 1.46547
thorax -3.30418 -0.623996 4.20562
lowerneck -16.4209 -1.95952 -9.72612
upperneck 22.6443 -1.20485 4.44451
head 10.0175 -0.884071 3.0367
rclavicle 1.12313e-014 -2.54444e-014
rhumerus -33.7109 -15.2835 -76.6554
rradius 28.2343
rwrist 8.04517
rhand -13.9425 16.8829
rfingers 7.12502
rthumb 12.1845 -12.7423
lclavicle 1.12313e-014 -2.54444e-014
lhumerus -31.5766 6.97085 82.8163
lradius 25.9545
lwrist -16.6461
lhand -8.93359 26.7375
lfingers 7.12502
lthumb 17.0104 56.0127
rfemur -28.6892 -4.33334 17.0772
rtibia 62.4052
rfoot -12.7353 -5.46771
rtoes -4.41817
lfemur -5.49143 -1.21752 -29.0791
ltibia 28.123
lfoot -15.9471 3.68934
ltoes 2.48029
